<mxfile host="app.diagrams.net" modified="2024-02-11T18:37:08.086Z" agent="Mozilla/5.0 (Windows NT 10.0; Win64; x64; rv:122.0) Gecko/20100101 Firefox/122.0" etag="TqmCuNKvfn6tT001JsOA" version="23.1.2" type="device">
  <diagram name="Page-1" id="6ccWfan0PvlrrTErAic8">
    <mxGraphModel dx="2465" dy="1915" grid="1" gridSize="10" guides="1" tooltips="1" connect="1" arrows="1" fold="1" page="1" pageScale="1" pageWidth="850" pageHeight="1100" math="0" shadow="0">
      <root>
        <mxCell id="0" />
        <mxCell id="1" parent="0" />
        <mxCell id="J6y4JcxE0GSAiarYAVM2-17" style="edgeStyle=orthogonalEdgeStyle;rounded=0;orthogonalLoop=1;jettySize=auto;html=1;exitX=0.75;exitY=0;exitDx=0;exitDy=0;entryX=0.25;entryY=1;entryDx=0;entryDy=0;" parent="1" source="J6y4JcxE0GSAiarYAVM2-1" target="J6y4JcxE0GSAiarYAVM2-12" edge="1">
          <mxGeometry relative="1" as="geometry" />
        </mxCell>
        <mxCell id="ajP6N9F6MVH2k6uEm9KE-13" style="edgeStyle=orthogonalEdgeStyle;rounded=0;orthogonalLoop=1;jettySize=auto;html=1;exitX=0;exitY=0.5;exitDx=0;exitDy=0;entryX=0;entryY=0.5;entryDx=0;entryDy=0;" edge="1" parent="1" source="J6y4JcxE0GSAiarYAVM2-1" target="J6y4JcxE0GSAiarYAVM2-3">
          <mxGeometry relative="1" as="geometry">
            <Array as="points">
              <mxPoint x="150" y="180" />
              <mxPoint x="150" y="280" />
            </Array>
          </mxGeometry>
        </mxCell>
        <mxCell id="J6y4JcxE0GSAiarYAVM2-1" value="Chunk Distributor Microservice" style="rounded=1;whiteSpace=wrap;html=1;" parent="1" vertex="1">
          <mxGeometry x="170" y="155" width="80" height="50" as="geometry" />
        </mxCell>
        <mxCell id="J6y4JcxE0GSAiarYAVM2-3" value="&lt;div&gt;Kafka Topic&lt;/div&gt;&lt;div&gt;(chunk)&lt;br&gt;&lt;/div&gt;" style="shape=parallelogram;perimeter=parallelogramPerimeter;whiteSpace=wrap;html=1;fixedSize=1;" parent="1" vertex="1">
          <mxGeometry x="270" y="257.5" width="100" height="45" as="geometry" />
        </mxCell>
        <mxCell id="J6y4JcxE0GSAiarYAVM2-6" style="edgeStyle=orthogonalEdgeStyle;rounded=0;orthogonalLoop=1;jettySize=auto;html=1;exitX=1;exitY=0.5;exitDx=0;exitDy=0;entryX=0;entryY=0.5;entryDx=0;entryDy=0;" parent="1" source="J6y4JcxE0GSAiarYAVM2-4" target="J6y4JcxE0GSAiarYAVM2-7" edge="1">
          <mxGeometry relative="1" as="geometry">
            <mxPoint x="650" y="175.33333333333337" as="targetPoint" />
          </mxGeometry>
        </mxCell>
        <mxCell id="J6y4JcxE0GSAiarYAVM2-4" value="&lt;div&gt;Job Group,Job Batch, Jobs Creator&lt;/div&gt;&lt;div&gt;Microservice&lt;br&gt;&lt;/div&gt;" style="rounded=1;whiteSpace=wrap;html=1;" parent="1" vertex="1">
          <mxGeometry x="455" y="245" width="110" height="60" as="geometry" />
        </mxCell>
        <mxCell id="J6y4JcxE0GSAiarYAVM2-5" style="edgeStyle=orthogonalEdgeStyle;rounded=0;orthogonalLoop=1;jettySize=auto;html=1;exitX=1;exitY=0.5;exitDx=0;exitDy=0;entryX=0.017;entryY=0.594;entryDx=0;entryDy=0;entryPerimeter=0;" parent="1" source="J6y4JcxE0GSAiarYAVM2-3" target="J6y4JcxE0GSAiarYAVM2-4" edge="1">
          <mxGeometry relative="1" as="geometry" />
        </mxCell>
        <mxCell id="ajP6N9F6MVH2k6uEm9KE-6" style="edgeStyle=orthogonalEdgeStyle;rounded=0;orthogonalLoop=1;jettySize=auto;html=1;exitX=1;exitY=0.5;exitDx=0;exitDy=0;entryX=0.5;entryY=1;entryDx=0;entryDy=0;" edge="1" parent="1" source="J6y4JcxE0GSAiarYAVM2-7" target="J6y4JcxE0GSAiarYAVM2-8">
          <mxGeometry relative="1" as="geometry">
            <mxPoint x="840" y="205" as="targetPoint" />
          </mxGeometry>
        </mxCell>
        <mxCell id="J6y4JcxE0GSAiarYAVM2-7" value="&lt;div&gt;Kafka Topic&lt;/div&gt;&lt;div&gt;(route)&lt;br&gt;&lt;/div&gt;" style="shape=parallelogram;perimeter=parallelogramPerimeter;whiteSpace=wrap;html=1;fixedSize=1;" parent="1" vertex="1">
          <mxGeometry x="630" y="252.5" width="100" height="45" as="geometry" />
        </mxCell>
        <mxCell id="J6y4JcxE0GSAiarYAVM2-18" style="edgeStyle=orthogonalEdgeStyle;rounded=0;orthogonalLoop=1;jettySize=auto;html=1;exitX=0.5;exitY=0;exitDx=0;exitDy=0;entryX=0.75;entryY=1;entryDx=0;entryDy=0;" parent="1" source="J6y4JcxE0GSAiarYAVM2-8" target="J6y4JcxE0GSAiarYAVM2-12" edge="1">
          <mxGeometry relative="1" as="geometry">
            <mxPoint x="810" y="145" as="sourcePoint" />
          </mxGeometry>
        </mxCell>
        <mxCell id="J6y4JcxE0GSAiarYAVM2-8" value="&lt;div&gt;Route&lt;/div&gt;&lt;div&gt;Microservice&lt;br&gt;&lt;/div&gt;&lt;div&gt;(JobBatch Processor &amp;amp; RouteEnd Processot)&lt;br&gt;&lt;/div&gt;" style="rounded=1;whiteSpace=wrap;html=1;" parent="1" vertex="1">
          <mxGeometry x="760" y="155" width="120" height="85" as="geometry" />
        </mxCell>
        <mxCell id="ajP6N9F6MVH2k6uEm9KE-10" style="edgeStyle=orthogonalEdgeStyle;rounded=0;orthogonalLoop=1;jettySize=auto;html=1;exitX=1;exitY=0.5;exitDx=0;exitDy=0;entryX=0;entryY=0.25;entryDx=0;entryDy=0;" edge="1" parent="1" source="J6y4JcxE0GSAiarYAVM2-10" target="ajP6N9F6MVH2k6uEm9KE-9">
          <mxGeometry relative="1" as="geometry" />
        </mxCell>
        <mxCell id="J6y4JcxE0GSAiarYAVM2-10" value="File Upload for a specific Process" style="ellipse;whiteSpace=wrap;html=1;" parent="1" vertex="1">
          <mxGeometry x="-360" y="5" width="140" height="90" as="geometry" />
        </mxCell>
        <mxCell id="J6y4JcxE0GSAiarYAVM2-12" value="Process,User Detail Microservice" style="rounded=1;whiteSpace=wrap;html=1;" parent="1" vertex="1">
          <mxGeometry x="620" y="20" width="120" height="60" as="geometry" />
        </mxCell>
        <mxCell id="ajP6N9F6MVH2k6uEm9KE-3" style="edgeStyle=orthogonalEdgeStyle;rounded=0;orthogonalLoop=1;jettySize=auto;html=1;exitX=1;exitY=0.5;exitDx=0;exitDy=0;entryX=0;entryY=0.5;entryDx=0;entryDy=0;" edge="1" parent="1" source="ajP6N9F6MVH2k6uEm9KE-1" target="J6y4JcxE0GSAiarYAVM2-12">
          <mxGeometry relative="1" as="geometry" />
        </mxCell>
        <mxCell id="ajP6N9F6MVH2k6uEm9KE-5" style="edgeStyle=orthogonalEdgeStyle;rounded=0;orthogonalLoop=1;jettySize=auto;html=1;exitX=0.25;exitY=1;exitDx=0;exitDy=0;entryX=0.5;entryY=1;entryDx=0;entryDy=0;" edge="1" parent="1" source="ajP6N9F6MVH2k6uEm9KE-1" target="J6y4JcxE0GSAiarYAVM2-1">
          <mxGeometry relative="1" as="geometry" />
        </mxCell>
        <mxCell id="ajP6N9F6MVH2k6uEm9KE-1" value="UI Microservice" style="rounded=1;whiteSpace=wrap;html=1;" vertex="1" parent="1">
          <mxGeometry x="410" y="20" width="120" height="60" as="geometry" />
        </mxCell>
        <mxCell id="ajP6N9F6MVH2k6uEm9KE-11" style="edgeStyle=orthogonalEdgeStyle;rounded=0;orthogonalLoop=1;jettySize=auto;html=1;exitX=1;exitY=0.25;exitDx=0;exitDy=0;entryX=0;entryY=0.5;entryDx=0;entryDy=0;" edge="1" parent="1" source="ajP6N9F6MVH2k6uEm9KE-9" target="ajP6N9F6MVH2k6uEm9KE-1">
          <mxGeometry relative="1" as="geometry" />
        </mxCell>
        <mxCell id="ajP6N9F6MVH2k6uEm9KE-9" value="API Gateway" style="rounded=0;whiteSpace=wrap;html=1;" vertex="1" parent="1">
          <mxGeometry x="-130" y="-35" width="120" height="340" as="geometry" />
        </mxCell>
        <mxCell id="ajP6N9F6MVH2k6uEm9KE-14" value="&lt;div&gt;Job DB&lt;/div&gt;&lt;div&gt;(NoSQL)&lt;br&gt;&lt;/div&gt;" style="shape=cylinder3;whiteSpace=wrap;html=1;boundedLbl=1;backgroundOutline=1;size=15;" vertex="1" parent="1">
          <mxGeometry x="610" y="370" width="175" height="200" as="geometry" />
        </mxCell>
        <mxCell id="ajP6N9F6MVH2k6uEm9KE-16" style="edgeStyle=orthogonalEdgeStyle;rounded=0;orthogonalLoop=1;jettySize=auto;html=1;exitX=0.25;exitY=1;exitDx=0;exitDy=0;entryX=0;entryY=0.5;entryDx=0;entryDy=0;entryPerimeter=0;" edge="1" parent="1" source="J6y4JcxE0GSAiarYAVM2-4" target="ajP6N9F6MVH2k6uEm9KE-14">
          <mxGeometry relative="1" as="geometry" />
        </mxCell>
        <mxCell id="ajP6N9F6MVH2k6uEm9KE-17" style="edgeStyle=orthogonalEdgeStyle;rounded=0;orthogonalLoop=1;jettySize=auto;html=1;exitX=0.75;exitY=1;exitDx=0;exitDy=0;entryX=1;entryY=0.5;entryDx=0;entryDy=0;entryPerimeter=0;" edge="1" parent="1" source="J6y4JcxE0GSAiarYAVM2-8" target="ajP6N9F6MVH2k6uEm9KE-14">
          <mxGeometry relative="1" as="geometry" />
        </mxCell>
        <mxCell id="ajP6N9F6MVH2k6uEm9KE-19" value="&lt;div&gt;Process &amp;amp; User Detail DB&lt;/div&gt;&lt;div&gt;(NoSQL)&lt;/div&gt;" style="shape=cylinder3;whiteSpace=wrap;html=1;boundedLbl=1;backgroundOutline=1;size=15;" vertex="1" parent="1">
          <mxGeometry x="1000" y="-50" width="175" height="200" as="geometry" />
        </mxCell>
        <mxCell id="ajP6N9F6MVH2k6uEm9KE-20" style="edgeStyle=orthogonalEdgeStyle;rounded=0;orthogonalLoop=1;jettySize=auto;html=1;exitX=1;exitY=0.5;exitDx=0;exitDy=0;entryX=0;entryY=0.5;entryDx=0;entryDy=0;entryPerimeter=0;" edge="1" parent="1" source="J6y4JcxE0GSAiarYAVM2-12" target="ajP6N9F6MVH2k6uEm9KE-19">
          <mxGeometry relative="1" as="geometry" />
        </mxCell>
        <mxCell id="ajP6N9F6MVH2k6uEm9KE-21" value="&lt;div&gt;File Storage&lt;/div&gt;&lt;div&gt;(S3)&lt;br&gt;&lt;/div&gt;" style="shape=note;whiteSpace=wrap;html=1;backgroundOutline=1;darkOpacity=0.05;" vertex="1" parent="1">
          <mxGeometry y="355" width="200" height="230" as="geometry" />
        </mxCell>
        <mxCell id="ajP6N9F6MVH2k6uEm9KE-23" style="edgeStyle=orthogonalEdgeStyle;rounded=0;orthogonalLoop=1;jettySize=auto;html=1;exitX=0;exitY=1;exitDx=0;exitDy=0;entryX=0;entryY=0;entryDx=85;entryDy=0;entryPerimeter=0;" edge="1" parent="1" source="ajP6N9F6MVH2k6uEm9KE-1" target="ajP6N9F6MVH2k6uEm9KE-21">
          <mxGeometry relative="1" as="geometry">
            <Array as="points">
              <mxPoint x="85" y="80" />
            </Array>
          </mxGeometry>
        </mxCell>
        <mxCell id="ajP6N9F6MVH2k6uEm9KE-25" style="edgeStyle=orthogonalEdgeStyle;rounded=0;orthogonalLoop=1;jettySize=auto;html=1;exitX=0.25;exitY=0;exitDx=0;exitDy=0;entryX=0.5;entryY=0;entryDx=0;entryDy=0;entryPerimeter=0;" edge="1" parent="1" source="J6y4JcxE0GSAiarYAVM2-1" target="ajP6N9F6MVH2k6uEm9KE-21">
          <mxGeometry relative="1" as="geometry" />
        </mxCell>
      </root>
    </mxGraphModel>
  </diagram>
</mxfile>
